# xmcd CD database file
#
# Track frame offsets:
#	150
#	29025
#	55650
#	79275
#	107550
#	139425
#	160050
#	179850
#	210450
#	225675
#
# Disc length: 3371 seconds
#
# Revision: 3
# Processed by: cddbd v1.5.1PL2 Copyright (c) Steve Scherf et al.
# Submitted via: CDex 1.51
#
DISCID=8d0d290a
DTITLE=Christophe Goze - Show Me The Way
DYEAR=1900
DGENRE=Jazz
TTITLE0=About Us
TTITLE1=Show Me The Way
TTITLE2=Ina
TTITLE3=Manana
TTITLE4=Barcelona
TTITLE5=Missing You
TTITLE6=Dream
TTITLE7=Something Like This
TTITLE8=Fading
TTITLE9=Thank You
EXTD=
EXTT0=
EXTT1=
EXTT2=
EXTT3=
EXTT4=
EXTT5=
EXTT6=
EXTT7=
EXTT8=
EXTT9=
PLAYORDER=
